<?xml version="1.0" encoding="UTF-8" standalone="no"?>
<svg
   xmlns:dc="http://purl.org/dc/elements/1.1/"
   xmlns:cc="http://creativecommons.org/ns#"
   xmlns:rdf="http://www.w3.org/1999/02/22-rdf-syntax-ns#"
   xmlns:svg="http://www.w3.org/2000/svg"
   xmlns="http://www.w3.org/2000/svg"
   style="fill-rule:evenodd;stroke-width:28.22200012;stroke-linejoin:round"
   id="svg85"
   xml:space="preserve"
   preserveAspectRatio="xMidYMid"
   viewBox="0 0 26528.681 12911.565"
   height="129.11565mm"
   width="265.2868mm"
   version="1.2"><metadata
   id="metadata89"><rdf:RDF><cc:Work
       rdf:about=""><dc:format>image/svg+xml</dc:format><dc:type
         rdf:resource="http://purl.org/dc/dcmitype/StillImage" /><dc:title></dc:title></cc:Work></rdf:RDF></metadata>
 <defs
   id="defs8"
   class="ClipPathGroup" />
 <defs
   id="defs19" />
 <defs
   id="defs23"
   class="TextShapeIndex" />
 <defs
   id="defs55"
   class="EmbeddedBulletChars" />
 <defs
   id="defs57"
   class="TextEmbeddedBitmaps" />
 
 <path
   d="M 1961.429,7619.94 H 4600.186 V 9482.592 C 3668.86,9680.146 2779.867,9877.7 1961.429,10047.032 Z M 4600.186,1636.876 V 3697.082 H 1961.429 V 1636.876 Z m 0,5037.627 H 1961.429 V 4642.519 h 2638.757 z m 1763.875,2427.092 -776.105,169.332 V 677.328 H 1001.881 v 9567.258 L 0,10442.14 183.443,11500.465 C 1862.652,11119.468 4233.3,10569.139 6434.616,10047.032 Z M 9355.593,3174.975 C 9397.926,2144.872 9397.926,1086.547 9397.926,0 H 8381.934 c 0,1086.547 0,2144.872 -42.333,3174.975 H 6053.619 v 1001.881 h 2243.649 c -197.554,3372.529 -903.104,6279.395 -3584.194,7958.604 268.109,155.221 606.773,522.107 761.994,776.105 C 8325.49,11020.691 9101.595,7845.716 9313.26,4176.856 h 2201.316 c -126.999,5136.404 -282.22,6999.056 -634.995,7422.386 -126.999,183.443 -282.22,225.776 -522.107,211.665 -296.331,0 -1030.103,0 -1834.43,-56.444 183.443,268.109 282.22,691.439 310.442,1001.881 747.883,28.222 1509.877,56.444 1933.207,14.111 451.552,-56.444 747.883,-169.332 1015.992,-536.218 465.663,-620.884 606.773,-2624.646 747.883,-8537.155 0,-126.999 14.111,-522.107 14.111,-522.107 z"
   style="fill:#000000;stroke:none"
   id="path147" /><path
   d="m 15903.097,917.215 c 0,239.887 -14.111,606.773 -70.555,931.326 -169.332,1157.102 -522.107,3316.085 -522.107,5573.845 0,1763.875 451.552,3584.194 733.772,4430.854 l 959.548,-112.888 -42.333,-479.774 c 0,-155.221 28.222,-409.219 70.555,-620.884 141.11,-691.439 564.44,-2102.539 903.104,-3076.198 l -620.884,-380.997 c -253.998,691.439 -536.218,1523.988 -733.772,2116.65 -507.996,-2285.982 -42.333,-5319.847 395.108,-7351.831 70.555,-268.109 169.332,-649.106 253.998,-903.104 z M 26528.68,3428.973 c -663.217,155.221 -1453.433,253.998 -2271.871,324.553 -14.111,-874.882 -28.222,-1792.097 -14.111,-2102.539 14.111,-310.442 14.111,-578.551 42.333,-818.438 h -1312.323 c 42.333,211.665 98.777,522.107 126.999,832.549 28.222,352.775 56.444,1284.101 84.666,2158.983 -592.662,28.222 -1185.324,42.333 -1763.875,42.333 -747.883,0 -1636.876,-56.444 -2243.649,-155.221 v 1128.88 c 606.773,56.444 1594.543,98.777 2257.76,98.777 578.551,0 1185.324,-14.111 1777.986,-42.333 v 409.219 c 0,2695.201 -70.555,4261.522 -1566.321,5559.734 -352.775,352.775 -931.326,691.439 -1368.767,874.882 l 1030.103,818.438 c 2963.31,-1749.764 2963.31,-4021.635 2963.31,-7238.943 v -479.774 c 832.549,-56.444 1622.765,-141.11 2257.76,-253.998 z"
   style="fill:#000000;stroke:none"
   id="path149" />
</svg>