<?xml version="1.0" encoding="UTF-8" standalone="no"?>
<svg
   xmlns:dc="http://purl.org/dc/elements/1.1/"
   xmlns:cc="http://creativecommons.org/ns#"
   xmlns:rdf="http://www.w3.org/1999/02/22-rdf-syntax-ns#"
   xmlns:svg="http://www.w3.org/2000/svg"
   xmlns="http://www.w3.org/2000/svg"
   style="fill-rule:evenodd;stroke-width:28.22200012;stroke-linejoin:round"
   id="svg85"
   xml:space="preserve"
   preserveAspectRatio="xMidYMid"
   viewBox="0 0 26571.011 12968.009"
   height="129.68008mm"
   width="265.71011mm"
   version="1.2"><metadata
   id="metadata89"><rdf:RDF><cc:Work
       rdf:about=""><dc:format>image/svg+xml</dc:format><dc:type
         rdf:resource="http://purl.org/dc/dcmitype/StillImage" /><dc:title></dc:title></cc:Work></rdf:RDF></metadata>
 <defs
   id="defs8"
   class="ClipPathGroup" />
 <defs
   id="defs19" />
 <defs
   id="defs23"
   class="TextShapeIndex" />
 <defs
   id="defs55"
   class="EmbeddedBulletChars" />
 <defs
   id="defs57"
   class="TextEmbeddedBitmaps" />
 
 <path
   d="M 2173.094,7690.495 H 4473.187 V 9327.371 C 3668.86,9496.703 2892.755,9651.924 2173.094,9807.145 Z M 4473.187,1820.319 V 3598.305 H 2173.094 V 1820.319 Z m 0,4713.074 H 2173.094 V 4741.296 h 2300.093 z m 1904.985,2370.648 -691.439,155.221 V 634.995 H 1001.881 v 9412.037 C 649.106,10117.587 310.442,10174.031 0,10230.475 l 239.887,1354.656 c 1693.32,-395.108 4049.857,-959.548 6265.284,-1495.766 z M 9496.703,3090.309 C 9524.925,2102.539 9524.925,1058.325 9524.925,0 H 8240.824 c 0,1058.325 0,2102.539 -28.222,3090.309 H 6110.063 v 1241.768 h 2060.206 c -197.554,3301.974 -874.882,6011.286 -3428.973,7634.051 310.442,239.887 719.661,677.328 917.215,1001.881 C 8466.6,11105.357 9214.483,8015.048 9440.259,4332.077 h 1876.763 c -112.888,4840.073 -268.109,6674.503 -578.551,7083.722 -141.11,183.443 -282.22,225.776 -522.107,211.665 -296.331,0 -987.77,0 -1721.542,-56.444 211.665,352.775 352.775,888.993 380.997,1255.879 733.772,28.222 1481.655,42.333 1919.096,-14.111 465.663,-70.555 776.105,-197.554 1072.436,-620.884 451.552,-606.773 578.551,-2638.757 719.661,-8480.711 0,-169.332 14.111,-620.884 14.111,-620.884 z"
   style="fill:#000000;stroke:none"
   id="path147" /><path
   d="m 15776.098,832.549 c -14.111,282.22 -28.222,691.439 -84.666,1044.214 -169.332,1157.102 -493.885,3301.974 -493.885,5587.956 0,1735.653 465.663,3612.416 761.994,4473.187 l 1213.546,-141.11 c 0,-169.332 -28.222,-380.997 -28.222,-522.107 -14.111,-155.221 28.222,-437.441 70.555,-634.995 155.221,-747.883 564.44,-2158.983 931.326,-3231.419 l -733.772,-465.663 c -239.887,620.884 -507.996,1382.878 -705.55,1904.985 -451.552,-2046.095 28.222,-5037.627 423.33,-6843.835 70.555,-282.22 183.443,-719.661 282.22,-1015.992 z m 10794.915,2483.536 c -620.884,126.999 -1382.878,225.776 -2187.205,296.331 -14.111,-832.549 -28.222,-1650.987 -14.111,-1961.429 14.111,-310.442 14.111,-606.773 56.444,-874.882 h -1622.765 c 56.444,225.776 112.888,578.551 141.11,874.882 28.222,366.886 56.444,1199.435 70.555,2046.095 -564.44,14.111 -1142.991,28.222 -1679.209,28.222 -747.883,0 -1538.099,-42.333 -2187.205,-141.11 v 1411.1 c 649.106,42.333 1566.321,84.666 2215.427,84.666 550.329,0 1114.769,-14.111 1679.209,-28.222 v 437.441 c 0,2554.091 -141.11,3979.302 -1453.433,5192.848 -366.886,395.108 -1001.881,776.105 -1481.655,987.77 l 1298.212,1015.992 C 24285.031,10921.914 24397.919,8748.82 24397.919,5503.29 v -522.107 c 818.438,-56.444 1566.321,-126.999 2173.094,-211.665 z"
   style="fill:#000000;stroke:none"
   id="path149" />
</svg>